# xmcd
# 
# Track frame offsets:
#     150
#     13012
#     32910
#     57071
#     75444
#     91625
#     110631
#     130208
#     148183
#     162122
#     183103
#     201005
#     220979
#     234023
#     247168
# 
# Disc length: 3616
# 
# Revision: 0
# Processed by: cddbd v1.5.2PL0 Copyright (c) Steve Scherf et al.
# Submitted via: fre:ac v1.0.17
# 
DISCID=c00e1e0f
DTITLE=Alan Jackson-George Strait-Jimmy Buffett - Live at Texas Stadium
DYEAR=2007
DGENRE=Country
TTITLE0=Honk If You Honky Tonk
TTITLE1=Murder On Music Row
TTITLE2=Milk Cow Blues
TTITLE3=Cowboys Like Us
TTITLE4=All My Ex's Live In Texas
TTITLE5=Hey Good Lookin'
TTITLE6=Sea Of Heartbreak
TTITLE7=Northeast Texas Women
TTITLE8=Boats To Build
TTITLE9=Margaritaville
TTITLE10=It's 5 O'Clock Somewhere
TTITLE11=Designated Drinker
TTITLE12=Texas Women
TTITLE13=Seven Bridges Road
TTITLE14=Where I Come From
EXTD=
EXTT0=
EXTT1=
EXTT2=
EXTT3=
EXTT4=
EXTT5=
EXTT6=
EXTT7=
EXTT8=
EXTT9=
EXTT10=
EXTT11=
EXTT12=
EXTT13=
EXTT14=
PLAYORDER=
